<svg width="1280" height="720" xmlns="http://www.w3.org/2000/svg" xmlns:xlink="http://www.w3.org/1999/xlink" overflow="hidden"><g><rect x="0" y="0" width="1280" height="720" fill="#FFFFFF"/><path d="M554 368.946C554 364.567 556.787 360.676 560.855 359.419L560.855 359.419C565.595 357.954 570.639 360.44 572.512 365.163L578 379 563.709 379C558.347 379 554 374.476 554 368.946L554 368.946Z" fill="#6C5FFC" fill-rule="evenodd"/><path d="M581.766 376.289 567 342 579.766 342C582.052 342 582.953 343.485 583.286 344.155L598 377.894C593.762 378.133 586.59 377.894 584.886 377.894 583.208 377.894 582.131 377.186 581.766 376.289Z" fill="#6C5FFC" fill-rule="evenodd"/><path d="M602.766 376.289 588 342 600.766 342C603.052 342 603.953 343.485 604.286 344.155L619 377.894C614.762 378.133 607.59 377.894 605.886 377.894 604.208 377.894 603.131 377.186 602.766 376.289Z" fill="#6C5FFC" fill-rule="evenodd"/></g></svg>